<svg xmlns="http://www.w3.org/2000/svg" viewBox="0 0 1200 630">
  <rect width="1200" height="630" fill="#05070b"/>
  <g stroke="#2563eb" stroke-opacity=".34" fill="none">
    <path d="M60 110h1080M60 210h1080M60 310h1080M60 410h1080M60 510h1080"/>
    <path d="M150 55v520M350 55v520M550 55v520M750 55v520M950 55v520"/>
  </g>
  <g fill="#10141c" stroke="#55dde0" stroke-width="3">
    <rect x="88" y="245" width="210" height="120" rx="8"/>
    <rect x="495" y="118" width="210" height="120" rx="8"/>
    <rect x="495" y="390" width="210" height="120" rx="8"/>
    <rect x="902" y="245" width="210" height="120" rx="8"/>
  </g>
  <g stroke="#55dde0" stroke-width="5" fill="none">
    <path d="M298 305h120l77-127"/>
    <path d="M298 305h120l77 145"/>
    <path d="M705 178h75l122 127"/>
    <path d="M705 450h75l122-145"/>
  </g>
  <g fill="#55dde0">
    <circle cx="418" cy="305" r="9"/><circle cx="780" cy="178" r="9"/>
    <circle cx="780" cy="450" r="9"/><circle cx="902" cy="305" r="9"/>
  </g>
  <text x="70" y="84" fill="#55dde0" font-family="monospace" font-size="24">AUSTINELITE / EVENT STREAM / 002</text>
  <text x="70" y="566" fill="#fff" font-family="Arial, sans-serif" font-size="55" font-weight="700">EVENT-DRIVEN ARCHITECTURE</text>
</svg>

