<svg xmlns="http://www.w3.org/2000/svg" width="390" height="1600" viewBox="0 0 390 1600" fill="none">
  <defs>
    <linearGradient id="heroMobile" x1="0" y1="0" x2="390" y2="650" gradientUnits="userSpaceOnUse">
      <stop stop-color="#060606"/>
      <stop offset=".58" stop-color="#101014"/>
      <stop offset="1" stop-color="#2B1240"/>
    </linearGradient>
    <radialGradient id="glowMobile" cx="0" cy="0" r="1" gradientUnits="userSpaceOnUse" gradientTransform="translate(292 232) rotate(90) scale(190)">
      <stop stop-color="#AF50FF" stop-opacity=".55"/>
      <stop offset=".52" stop-color="#AF50FF" stop-opacity=".16"/>
      <stop offset="1" stop-color="#AF50FF" stop-opacity="0"/>
    </radialGradient>
    <style>
      .bg { fill: #090909; }
      .white { fill: #F7F9FA; }
      .soft { fill: #B9BEC5; }
      .muted { fill: #777B82; }
      .accent { fill: #AF50FF; }
      .panel { fill: rgba(9,9,9,.68); stroke: rgba(247,249,250,.2); stroke-width: 1; }
      .line { stroke: rgba(247,249,250,.18); stroke-width: 1; }
      .sans { font-family: "Space Grotesk", "Segoe UI", Arial, sans-serif; }
      .mono { font-family: "IBM Plex Mono", "Cascadia Mono", Consolas, monospace; }
      .serif { font-family: Georgia, "Times New Roman", serif; font-style: italic; }
    </style>
  </defs>

  <rect width="390" height="1600" class="bg"/>
  <rect width="390" height="650" fill="url(#heroMobile)"/>
  <rect width="390" height="650" fill="url(#glowMobile)"/>
  <g opacity=".18">
    <path d="M0 110H390M0 220H390M0 330H390M0 440H390M0 550H390" class="line"/>
    <path d="M78 0V650M156 0V650M234 0V650M312 0V650" class="line"/>
  </g>

  <g>
    <rect width="390" height="62" fill="#090909" fill-opacity=".86"/>
    <path d="M0 62H390" class="line"/>
    <circle cx="22" cy="31" r="4" class="accent"/>
    <text x="36" y="36" class="white sans" font-size="15" font-weight="700">AUSTINELITE</text>
    <path d="M340 26H368M340 36H368" stroke="#F7F9FA" stroke-width="2"/>
  </g>

  <g transform="translate(22 116)">
    <text x="0" y="0" class="soft mono" font-size="10">// BACKEND SYSTEMS / APPLIED AI</text>
    <text x="0" y="88" class="white serif" font-size="54">Austin</text>
    <text x="0" y="155" class="white sans" font-size="48" font-weight="300" letter-spacing="-1">AUSTINELITE</text>
    <g transform="translate(0 190)">
      <circle cx="4" cy="-4" r="4" class="accent"/>
      <text x="16" y="0" class="white mono" font-size="10">JAVA BACKEND DEVELOPER</text>
      <circle cx="4" cy="28" r="4" class="accent"/>
      <text x="16" y="32" class="white mono" font-size="10">AI AGENT BUILDER</text>
    </g>
    <text x="0" y="266" class="soft sans" font-size="17">Reliable backend systems and</text>
    <text x="0" y="292" class="soft sans" font-size="17">practical AI products.</text>
    <rect x="0" y="326" width="155" height="46" rx="8" fill="#AF50FF"/>
    <text x="42" y="354" class="white sans" font-size="15">View Work</text>
    <rect x="166" y="326" width="116" height="46" rx="8" stroke="rgba(247,249,250,.34)" fill="rgba(9,9,9,.36)"/>
    <text x="203" y="354" class="white sans" font-size="15">GitHub</text>
  </g>

  <g transform="translate(22 516)">
    <rect width="346" height="104" rx="8" class="panel"/>
    <circle cx="20" cy="27" r="5" class="accent"/>
    <text x="36" y="31" class="soft mono" font-size="10">NOW / BUILD LOG</text>
    <path d="M18 46H328" class="line"/>
    <text x="18" y="70" class="white sans" font-size="15">Backend + AI Agents</text>
    <text x="18" y="92" class="soft mono" font-size="10">JAVA / SPRING / LLM</text>
  </g>

  <g transform="translate(22 706)">
    <text x="0" y="0" class="muted mono" font-size="11">01 / ABOUT</text>
    <text x="0" y="52" class="white sans" font-size="34" font-weight="300">Reliable systems</text>
    <text x="0" y="92" class="white sans" font-size="34" font-weight="300">meet practical AI.</text>
    <text x="0" y="136" class="soft sans" font-size="16">I work at the intersection of Java</text>
    <text x="0" y="160" class="soft sans" font-size="16">backend architecture, retrieval</text>
    <text x="0" y="184" class="soft sans" font-size="16">systems and AI Agent workflows.</text>
    <path d="M0 230H346M0 278H346M0 326H346" class="line"/>
    <text x="0" y="262" class="muted mono" font-size="10">FOCUS</text>
    <text x="120" y="262" class="white mono" font-size="10">Backend / AI Agents</text>
    <text x="0" y="310" class="muted mono" font-size="10">STACK</text>
    <text x="120" y="310" class="white mono" font-size="10">Java / Spring / LLM</text>
  </g>

  <g transform="translate(22 1088)">
    <text x="0" y="0" class="muted mono" font-size="11">02 / SELECTED WORK</text>
    <g transform="translate(0 34)">
      <rect width="346" height="120" rx="8" fill="#101010" stroke="rgba(247,249,250,.18)"/>
      <text x="18" y="34" class="muted mono" font-size="10">01 / INTELLIGENCE</text>
      <text x="18" y="76" class="white sans" font-size="28" font-weight="300">ai-market-radar</text>
      <circle cx="308" cy="62" r="24" stroke="#AF50FF"/>
      <path d="M308 62L335 42" stroke="#AF50FF" stroke-width="3"/>
    </g>
    <g transform="translate(0 176)">
      <rect width="346" height="120" rx="8" fill="#101010" stroke="rgba(247,249,250,.18)"/>
      <text x="18" y="34" class="muted mono" font-size="10">02 / PRODUCT</text>
      <text x="18" y="76" class="white sans" font-size="28" font-weight="300">AustinMusic</text>
      <path d="M254 78C266 38 278 92 290 58C302 26 314 94 326 58" stroke="#F7F9FA" stroke-width="3"/>
    </g>
    <g transform="translate(0 318)">
      <rect width="346" height="120" rx="8" fill="#101010" stroke="rgba(247,249,250,.18)"/>
      <text x="18" y="34" class="muted mono" font-size="10">03 / EXPERIENCE</text>
      <text x="18" y="76" class="white sans" font-size="28" font-weight="300">study-haven</text>
      <rect x="258" y="38" width="58" height="50" rx="8" fill="#F7F9FA"/>
      <circle cx="278" cy="63" r="10" fill="#090909"/>
    </g>
  </g>

  <g transform="translate(22 1544)">
    <path d="M0 0H346" class="line"/>
    <text x="0" y="32" class="white sans" font-size="28" font-weight="300">Let's build useful AI.</text>
  </g>
</svg>
