<svg xmlns="http://www.w3.org/2000/svg" viewBox="0 0 1200 630">
  <rect width="1200" height="630" fill="#05070b"/>
  <g stroke="#55dde0" fill="none">
    <path d="M55 320h55l32-92 45 211 45-174 52 93 50-38 42-170 48 305 48-156 43 21 46-118 50 233 42-115h62l39-44 42 86 48-32 40-168 50 276 44-119 46 31h65" stroke-width="7"/>
    <path d="M55 520h1090M55 110h1090" stroke-opacity=".18"/>
  </g>
  <g fill="#2563eb">
    <circle cx="334" cy="320" r="10"/><circle cx="661" cy="320" r="10"/><circle cx="932" cy="320" r="10"/>
  </g>
  <text x="65" y="82" fill="#55dde0" font-family="monospace" font-size="24">AUSTINELITE / 遥测 / 004</text>
  <text x="65" y="576" fill="#fff" font-family="Microsoft YaHei, PingFang SC, sans-serif" font-size="54" font-weight="700">现代后端系统可观测性</text>
</svg>
